<svg width="28" height="28" viewBox="0 0 28 28" fill="none" xmlns="http://www.w3.org/2000/svg">
<path fill-rule="evenodd" clip-rule="evenodd" d="M28 14C28 21.732 21.732 28 14 28C6.26801 28 0 21.732 0 14C0 6.26801 6.26801 0 14 0C21.732 0 28 6.26801 28 14ZM14.6498 20.6227C14.48 20.7998 14.2453 20.9 14 20.9C13.7547 20.9 13.52 20.7998 13.3502 20.6227L8.3502 15.4053C8.00629 15.0465 8.01841 14.4767 8.37728 14.1328C8.73615 13.7889 9.30587 13.801 9.64978 14.1599L13.1 17.7601V8C13.1 7.50294 13.5029 7.1 14 7.1C14.497 7.1 14.9 7.50294 14.9 8V17.7601L18.3502 14.1599C18.6941 13.801 19.2638 13.7889 19.6227 14.1328C19.9816 14.4767 19.9937 15.0465 19.6498 15.4053L14.6498 20.6227Z" fill="#007AFF"/>
</svg>
