<svg width="28" height="20" viewBox="0 0 28 20" fill="none" xmlns="http://www.w3.org/2000/svg">
<path d="M0 5C0 4.07069 0 3.60603 0.0768589 3.21964C0.392486 1.63288 1.63288 0.392486 3.21964 0.0768589C3.60603 0 4.07069 0 5 0H23C23.9293 0 24.394 0 24.7804 0.0768589C26.3671 0.392486 27.6075 1.63288 27.9231 3.21964C28 3.60603 28 4.07069 28 5H0Z" fill="#007AFF"/>
<path fill-rule="evenodd" clip-rule="evenodd" d="M28 8H0V13.6C0 15.8402 0 16.9603 0.435974 17.816C0.819467 18.5686 1.43139 19.1805 2.18404 19.564C3.03969 20 4.15979 20 6.4 20H21.6C23.8402 20 24.9603 20 25.816 19.564C26.5686 19.1805 27.1805 18.5686 27.564 17.816C28 16.9603 28 15.8402 28 13.6V8ZM5 12C4.44772 12 4 12.4477 4 13V15C4 15.5523 4.44772 16 5 16H8C8.55229 16 9 15.5523 9 15V13C9 12.4477 8.55229 12 8 12H5Z" fill="#007AFF"/>
</svg>
