<svg width="28" height="28" viewBox="0 0 28 28" fill="none" xmlns="http://www.w3.org/2000/svg">
<path fill-rule="evenodd" clip-rule="evenodd" d="M14 28C21.732 28 28 21.732 28 14C28 6.26801 21.732 0 14 0C6.26801 0 0 6.26801 0 14C0 21.732 6.26801 28 14 28ZM14.6498 7.37729C14.48 7.20016 14.2453 7.1 14 7.1C13.7547 7.1 13.52 7.20016 13.3502 7.37729L8.35021 12.5947C8.00629 12.9535 8.01842 13.5233 8.37729 13.8672C8.73615 14.2111 9.30587 14.199 9.64979 13.8401L13.1 10.2399V20C13.1 20.4971 13.5029 20.9 14 20.9C14.4971 20.9 14.9 20.4971 14.9 20V10.2399L18.3502 13.8401C18.6941 14.199 19.2638 14.2111 19.6227 13.8672C19.9816 13.5233 19.9937 12.9535 19.6498 12.5947L14.6498 7.37729Z" fill="#007AFF"/>
</svg>
