<?xml version="1.0" standalone="no"?>
<!DOCTYPE svg PUBLIC "-//W3C//DTD SVG 20010904//EN"
 "http://www.w3.org/TR/2001/REC-SVG-20010904/DTD/svg10.dtd">
<svg version="1.0" xmlns="http://www.w3.org/2000/svg"
 width="512.000000pt" height="512.000000pt" viewBox="0 0 512.000000 512.000000"
 preserveAspectRatio="xMidYMid meet">

<g transform="translate(0.000000,512.000000) scale(0.100000,-0.100000)"
fill="#000000" stroke="none">
<path d="M0 2560 l0 -2560 2560 0 2560 0 0 2560 0 2560 -2560 0 -2560 0 0
-2560z m3428 1568 c5 -18 60 -239 123 -490 l114 -458 -125 -125 -125 -125 -87
0 c-64 0 -88 -3 -88 -12 0 -7 96 -394 214 -859 l213 -847 -113 -113 c-62 -62
-116 -110 -120 -106 -8 8 -8 132 0 146 3 5 0 20 -7 35 l-14 25 -43 -44 c-43
-43 -46 -45 -104 -45 l-60 0 44 45 44 45 -183 0 -183 0 -121 -116 -122 -115
-61 243 -61 243 87 90 c64 67 87 97 86 115 -1 25 -2 25 -116 31 l-115 5 -122
-120 c-67 -66 -125 -118 -127 -115 -7 7 -116 449 -116 469 0 9 50 65 111 125
61 61 114 117 119 126 6 11 -21 134 -85 385 l-94 369 73 75 c50 50 76 86 81
108 4 21 3 32 -5 32 -6 0 -8 5 -5 10 4 7 -62 10 -192 10 l-198 0 -121 -121
-121 -121 -123 492 -123 492 124 124 124 124 857 0 857 0 9 -32z"/>
<path d="M2197 3784 c-3 -3 -2 -17 4 -31 11 -30 11 -36 1 -29 -5 3 -7 -5 -6
-17 1 -12 3 -25 3 -29 1 -5 221 -8 491 -8 l489 0 10 -37 c6 -21 15 -60 21 -88
6 -27 15 -67 21 -87 l10 -38 58 0 59 0 -36 141 -36 140 -32 -4 c-17 -3 -37 -8
-43 -11 -20 -12 -12 5 24 55 l35 49 -533 0 c-294 0 -536 -3 -540 -6z"/>
<path d="M2818 3373 l-47 -48 238 -944 c131 -521 243 -947 249 -949 7 -2 10
-8 6 -13 -7 -12 2 -11 29 3 12 6 29 14 37 18 8 4 16 13 17 21 2 8 -106 452
-240 987 l-242 973 -47 -48z"/>
</g>
</svg>
