<svg width="18" height="18" viewBox="0 0 18 18" fill="none" xmlns="http://www.w3.org/2000/svg">
<path d="M9.06055 17.5815C7.88737 17.5815 6.78337 17.3574 5.74854 16.9092C4.7137 16.4665 3.80062 15.8494 3.00928 15.0581C2.22347 14.2668 1.60645 13.3537 1.1582 12.3188C0.709961 11.284 0.48584 10.18 0.48584 9.00684C0.48584 7.83366 0.709961 6.72965 1.1582 5.69482C1.60645 4.65999 2.22347 3.74967 3.00928 2.96387C3.80062 2.17253 4.71094 1.55273 5.74023 1.10449C6.77506 0.65625 7.87907 0.432129 9.05225 0.432129C10.231 0.432129 11.3377 0.65625 12.3726 1.10449C13.4074 1.55273 14.3205 2.17253 15.1118 2.96387C15.9032 3.74967 16.5229 4.65999 16.9712 5.69482C17.4194 6.72965 17.6436 7.83366 17.6436 9.00684C17.6436 10.18 17.4194 11.284 16.9712 12.3188C16.5229 13.3537 15.9032 14.2668 15.1118 15.0581C14.3205 15.8494 13.4074 16.4665 12.3726 16.9092C11.3377 17.3574 10.2337 17.5815 9.06055 17.5815ZM9.06055 15.8882C10.0179 15.8882 10.9116 15.7111 11.7417 15.3569C12.5718 15.0028 13.3022 14.5103 13.9331 13.8794C14.564 13.2485 15.0565 12.5181 15.4106 11.688C15.7648 10.8579 15.9419 9.96419 15.9419 9.00684C15.9419 8.05501 15.7648 7.16406 15.4106 6.33398C15.0565 5.49837 14.564 4.76514 13.9331 4.13428C13.3022 3.50342 12.569 3.01091 11.7334 2.65674C10.9033 2.30257 10.0096 2.12549 9.05225 2.12549C8.10042 2.12549 7.20671 2.30257 6.37109 2.65674C5.54102 3.01091 4.81331 3.50342 4.18799 4.13428C3.56266 4.76514 3.07292 5.49837 2.71875 6.33398C2.36458 7.16406 2.1875 8.05501 2.1875 9.00684C2.1875 9.96419 2.36458 10.8579 2.71875 11.688C3.07292 12.5181 3.56266 13.2485 4.18799 13.8794C4.81885 14.5103 5.54932 15.0028 6.37939 15.3569C7.21501 15.7111 8.10872 15.8882 9.06055 15.8882ZM8.87793 10.6587C8.35221 10.6587 8.08936 10.4235 8.08936 9.95312C8.08936 9.93652 8.08936 9.91992 8.08936 9.90332C8.08936 9.88672 8.08936 9.87288 8.08936 9.86182C8.08936 9.47998 8.18343 9.17008 8.37158 8.93213C8.56527 8.69417 8.81152 8.47282 9.11035 8.26807C9.46452 8.02458 9.72738 7.81706 9.89893 7.64551C10.076 7.47396 10.1646 7.25814 10.1646 6.99805C10.1646 6.71582 10.0594 6.48617 9.84912 6.30908C9.64437 6.12646 9.37321 6.03516 9.03564 6.03516C8.86963 6.03516 8.71468 6.06283 8.5708 6.11816C8.43245 6.1735 8.30241 6.25374 8.18066 6.35889C8.06445 6.4585 7.95931 6.58301 7.86523 6.73242L7.73242 6.90674C7.65495 7.01188 7.56087 7.09489 7.4502 7.15576C7.34505 7.21663 7.21777 7.24707 7.06836 7.24707C6.89681 7.24707 6.74463 7.18896 6.61182 7.07275C6.479 6.95654 6.4126 6.79883 6.4126 6.59961C6.4126 6.52214 6.41813 6.4502 6.4292 6.38379C6.4458 6.31185 6.46794 6.23991 6.49561 6.16797C6.62288 5.7806 6.91618 5.4458 7.37549 5.16357C7.84033 4.88135 8.42969 4.74023 9.14355 4.74023C9.63053 4.74023 10.0788 4.82601 10.4883 4.99756C10.9033 5.16911 11.2354 5.41536 11.4844 5.73633C11.7334 6.05729 11.8579 6.44743 11.8579 6.90674C11.8579 7.39372 11.7334 7.77832 11.4844 8.06055C11.2409 8.34277 10.9172 8.61947 10.5132 8.89062C10.2365 9.06771 10.0262 9.23649 9.88232 9.39697C9.73844 9.55745 9.66097 9.74561 9.6499 9.96143C9.6499 9.97249 9.6499 9.98909 9.6499 10.0112C9.6499 10.0278 9.64714 10.0444 9.6416 10.061C9.63053 10.2271 9.55583 10.3682 9.41748 10.4844C9.28467 10.6006 9.10482 10.6587 8.87793 10.6587ZM8.86133 13.207C8.5957 13.207 8.36605 13.1213 8.17236 12.9497C7.98421 12.7726 7.89014 12.554 7.89014 12.2939C7.89014 12.0339 7.98421 11.818 8.17236 11.6465C8.36051 11.4694 8.59017 11.3809 8.86133 11.3809C9.13249 11.3809 9.36214 11.4666 9.55029 11.6382C9.73844 11.8097 9.83252 12.0283 9.83252 12.2939C9.83252 12.5596 9.73844 12.7782 9.55029 12.9497C9.36214 13.1213 9.13249 13.207 8.86133 13.207Z" fill="#007AFF"/>
</svg>
